<svg id="Layer_1" data-name="Layer 1" xmlns="http://www.w3.org/2000/svg" viewBox="0 0 803.4 840.1"><defs><style>.cls-1,.cls-3{fill:none;stroke-linecap:round;stroke-linejoin:round;}.cls-1{stroke:#eff4f1;stroke-width:56px;}.cls-2{fill:#eff4f1;}.cls-3{stroke:#eff4f1;stroke-width:13px;}</style></defs><polygon class="cls-1" points="775.4 28 775.4 554.11 401.7 737.72 28 554.11 28 28 401.7 211.61 775.4 28"/><path class="cls-2" d="M530.17,922.65l-28.6-23.86L473,922.65c-4.23,3.53-9.87-.29-9.87-6.69V267.48H540V916C540,922.36,534.4,926.18,530.17,922.65Z" transform="translate(-98.3 -83.9)"/><line class="cls-3" x1="99.43" y1="197.15" x2="320.7" y2="305.86"/><line class="cls-3" x1="99.43" y1="282.12" x2="320.7" y2="390.83"/><line class="cls-3" x1="99.43" y1="364.1" x2="320.7" y2="472.82"/><line class="cls-3" x1="99.43" y1="453.86" x2="320.7" y2="562.57"/><line class="cls-3" x1="693.78" y1="197.15" x2="472.51" y2="305.86"/><line class="cls-3" x1="693.78" y1="282.12" x2="472.51" y2="390.83"/><line class="cls-3" x1="693.78" y1="364.1" x2="472.51" y2="472.82"/><line class="cls-3" x1="693.78" y1="453.86" x2="472.51" y2="562.57"/></svg>